<?xml version="1.0" encoding="UTF-8"?><svg id="a" xmlns="http://www.w3.org/2000/svg" viewBox="0 0 249.82 71.36"><path d="M0,55.09l2.15-10.13h27.7c.92,0,1.6-.18,2.03-.54s.75-1.02.96-2l1.53-7.21c.05-.2.08-.49.08-.84,0-.92-.67-1.38-2-1.38H11.97c-2.1,0-3.62-.45-4.57-1.34-.95-.89-1.42-2.16-1.42-3.8,0-.61.08-1.35.23-2.23l2.84-13.42c.66-3.07,1.79-5.34,3.38-6.83,1.58-1.48,4.07-2.23,7.44-2.23h32.3l-2.07,9.9h-27.54c-.82,0-1.41.18-1.76.54-.36.36-.64,1-.84,1.92l-1.46,6.83c-.05.2-.09.38-.11.54-.03.15-.04.31-.04.46,0,.77.56,1.15,1.69,1.15h20.79c2.15,0,3.69.46,4.64,1.38s1.42,2.2,1.42,3.84c0,.67-.08,1.38-.23,2.15l-2.99,14.19c-.67,3.07-1.79,5.35-3.38,6.83s-4.04,2.23-7.37,2.23H0v-.01Z" fill="#2500ff"/><path d="M56.16,55.09c-1.94,0-3.35-.37-4.22-1.11-.87-.74-1.3-1.85-1.3-3.34,0-.72.13-1.66.38-2.84l1.92-9.21c.31-1.43.66-2.63,1.07-3.61.41-.97.92-1.74,1.53-2.3.61-.56,1.35-.96,2.23-1.19.87-.23,1.92-.35,3.15-.35h19.72l-1.38,6.6h-14.12c-.72,0-1.23.13-1.53.38-.31.26-.54.79-.69,1.61l-.84,4.07c-.05.26-.09.46-.11.61-.03.15-.04.31-.04.46,0,.67.49,1,1.46,1h17.95l4.07-19.03c.05-.2.08-.49.08-.84,0-.41-.13-.73-.38-.96-.26-.23-.74-.34-1.46-.34h-26.34l1.76-8.44h31.76c2.25,0,3.84.37,4.76,1.11.92.74,1.38,1.91,1.38,3.49,0,.72-.13,1.71-.38,2.99l-6.59,31.24h-33.84Z" fill="#2500ff"/><path d="M112.48,55.09l1.92-9.21h12.89c.77,0,1.32-.14,1.65-.42s.6-.86.81-1.73l3.38-15.73c.05-.26.08-.59.08-1,0-.46-.11-.78-.35-.96-.23-.18-.65-.27-1.27-.27h-16.73l-9.74,45.58h-10.75l11.74-55.09h32.84c2.25,0,3.84.38,4.76,1.15s1.38,1.94,1.38,3.53c0,.97-.1,1.94-.31,2.92l-4.99,23.63c-.56,2.66-1.6,4.59-3.11,5.79s-3.49,1.8-5.95,1.8h-18.25v.01Z" fill="#2500ff"/><path d="M145.7,55.09l8.21-38.82h10.44l-.92,4.22c.97-1.48,2.06-2.56,3.26-3.22s2.65-1,4.34-1h11.28l-2,9.28h-15.5c-.77,0-1.34.14-1.73.42-.38.28-.68.86-.88,1.73l-5.75,27.39s-10.75,0-10.75,0Z" fill="#2500ff"/><path d="M180.69,55.09l8.21-38.82h10.74l-8.21,38.82h-10.74ZM189.9,11.66l2.45-11.66h10.82l-2.46,11.66h-10.81Z" fill="#2500ff"/><polygon points="228.95 55.09 222.2 40.2 208.92 55.09 196.49 55.09 215.06 34.37 205.93 16.27 218.67 16.27 225.34 30.15 237.7 16.27 249.82 16.27 232.55 35.06 242.07 55.09 228.95 55.09" fill="#2500ff"/></svg>