<?xml version="1.0" encoding="UTF-8"?><svg id="a" xmlns="http://www.w3.org/2000/svg" viewBox="0 0 539.353 154.064"><path d="M0,118.954l4.642-21.873h59.812c1.987,0,3.455-.389,4.383-1.166s1.619-2.202,2.073-4.319l3.304-15.568c.108-.432.173-1.058.173-1.814,0-1.987-1.447-2.98-4.319-2.98H25.846c-4.534,0-7.817-.972-9.868-2.893-2.051-1.922-3.066-4.664-3.066-8.205,0-1.317.173-2.915.497-4.815l6.132-28.977c1.425-6.629,3.865-11.53,7.298-14.748,3.412-3.196,8.788-4.815,16.065-4.815h69.744l-4.47,21.377h-59.466c-1.771,0-3.045.389-3.8,1.166-.777.777-1.382,2.159-1.814,4.146l-3.153,14.748c-.108.432-.194.821-.238,1.166-.065.324-.086.669-.086.993,0,1.663,1.209,2.483,3.649,2.483h44.891c4.642,0,7.968.993,10.019,2.98s3.066,4.75,3.066,8.292c0,1.447-.173,2.98-.497,4.642l-6.456,30.64c-1.447,6.629-3.865,11.552-7.298,14.748s-8.723,4.815-15.914,4.815H0v-.022Z" fill="#fff"/><path d="M121.265,118.954c-4.189,0-7.234-.799-9.112-2.397-1.879-1.598-2.807-3.995-2.807-7.212,0-1.555.281-3.584.821-6.132l4.146-19.887c.669-3.088,1.425-5.679,2.31-7.795.885-2.094,1.987-3.757,3.304-4.966,1.317-1.209,2.915-2.073,4.815-2.57,1.879-.497,4.146-.756,6.802-.756h42.581l-2.98,14.251h-30.489c-1.555,0-2.656.281-3.304.821-.669.561-1.166,1.706-1.49,3.476l-1.814,8.788c-.108.561-.194.993-.238,1.317-.065.324-.086.669-.086.993,0,1.447,1.058,2.159,3.153,2.159h38.759l8.788-41.091c.108-.432.173-1.058.173-1.814,0-.885-.281-1.576-.821-2.073-.561-.497-1.598-.734-3.153-.734h-56.875l3.8-18.224h68.578c4.858,0,8.292.799,10.278,2.397,1.987,1.598,2.98,4.124,2.98,7.536,0,1.555-.281,3.692-.821,6.456l-14.23,67.456h-73.07Z" fill="#fff"/><path d="M242.875,118.954l4.146-19.887h27.833c1.663,0,2.85-.302,3.563-.907s1.296-1.857,1.749-3.736l7.298-33.965c.108-.561.173-1.274.173-2.159,0-.993-.238-1.684-.756-2.073-.497-.389-1.404-.583-2.742-.583h-36.125l-21.031,98.419h-23.212l25.35-118.954h70.91c4.858,0,8.292.821,10.278,2.483s2.98,4.189,2.98,7.622c0,2.094-.216,4.189-.669,6.305l-10.775,51.024c-1.209,5.744-3.455,9.911-6.715,12.502s-7.536,3.887-12.848,3.887h-39.407v.022Z" fill="#fff"/><path d="M314.605,118.954l17.728-83.823h22.543l-1.987,9.112c2.094-3.196,4.448-5.528,7.039-6.953s5.722-2.159,9.371-2.159h24.357l-4.319,20.038h-33.469c-1.663,0-2.893.302-3.736.907-.821.605-1.468,1.857-1.9,3.736l-12.416,59.142s-23.212,0-23.212,0Z" fill="#fff"/><path d="M390.158,118.954l17.728-83.823h23.191l-17.728,83.823h-23.191ZM410.045,25.177l5.29-25.177h23.363l-5.312,25.177h-23.342Z" fill="#fff"/><polygon points="494.365 118.954 479.789 86.803 451.114 118.954 424.275 118.954 464.372 74.214 444.658 35.131 472.167 35.131 486.57 65.102 513.258 35.131 539.429 35.131 502.138 75.704 522.694 118.954 494.365 118.954" fill="#fff"/></svg>